<?xml version="1.0" encoding="UTF-8" standalone="no"?>
<svg
   xmlns:dc="http://purl.org/dc/elements/1.1/"
   xmlns:cc="http://creativecommons.org/ns#"
   xmlns:rdf="http://www.w3.org/1999/02/22-rdf-syntax-ns#"
   xmlns:svg="http://www.w3.org/2000/svg"
   xmlns="http://www.w3.org/2000/svg"
   xmlns:sodipodi="http://sodipodi.sourceforge.net/DTD/sodipodi-0.dtd"
   xmlns:inkscape="http://www.inkscape.org/namespaces/inkscape"
   width="560.29871"
   height="95.836006"
   viewBox="0 0 466.91559 79.863338"
   preserveAspectRatio="xMidYMid"
   class="uil-gears"
   version="1.1"
   id="svg12"
   sodipodi:docname="aiidalab_logo_wide_static_v4.svg"
   inkscape:version="0.92.2 2405546, 2018-03-11"
   inkscape:export-filename="/Users/leopold/Downloads/aiidalab-icon/aiidalab_arrows_v1a.png"
   inkscape:export-xdpi="799.94525"
   inkscape:export-ydpi="799.94525">
  <metadata
     id="metadata18">
    <rdf:RDF>
      <cc:Work
         rdf:about="">
        <dc:format>image/svg+xml</dc:format>
        <dc:type
           rdf:resource="http://purl.org/dc/dcmitype/StillImage" />
        <dc:title></dc:title>
      </cc:Work>
    </rdf:RDF>
  </metadata>
  <defs
     id="defs16" />
  <sodipodi:namedview
     pagecolor="#ffffff"
     bordercolor="#666666"
     borderopacity="1"
     objecttolerance="10"
     gridtolerance="10"
     guidetolerance="10"
     inkscape:pageopacity="0"
     inkscape:pageshadow="2"
     inkscape:window-width="1245"
     inkscape:window-height="856"
     id="namedview14"
     showgrid="false"
     inkscape:zoom="0.49166667"
     inkscape:cx="267.14776"
     inkscape:cy="-18.427313"
     inkscape:window-x="90"
     inkscape:window-y="7"
     inkscape:window-maximized="0"
     inkscape:current-layer="svg12"
     fit-margin-top="0"
     fit-margin-left="0"
     fit-margin-right="0"
     fit-margin-bottom="0"
     inkscape:snap-global="false" />
  <text
     xml:space="preserve"
     style="font-style:normal;font-weight:normal;font-size:90.93605804px;line-height:1.25em;font-family:sans-serif;letter-spacing:0px;word-spacing:0px;fill:#ff0000;fill-opacity:1;stroke:none;stroke-width:4.26262712px;stroke-linecap:butt;stroke-linejoin:miter;stroke-opacity:1"
     x="339.39197"
     y="76.448784"
     id="text2119"><tspan
       sodipodi:role="line"
       id="tspan2117"
       x="339.39197"
       y="76.448784"
       style="font-style:normal;font-variant:normal;font-weight:500;font-stretch:normal;font-family:Futura;-inkscape-font-specification:'Futura Medium';fill:#b3b3b3;stroke:none;stroke-width:4.26262712px">lab</tspan></text>
  <flowRoot
     transform="matrix(0.88888891,0,0,0.88888891,339.04153,-543.62515)"
     style="font-style:normal;font-variant:normal;font-weight:normal;font-stretch:normal;line-height:0.01%;font-family:Arial;-inkscape-font-specification:Arial;letter-spacing:0px;word-spacing:0px;fill:#000000;fill-opacity:1;stroke:none;stroke-width:1px;stroke-linecap:butt;stroke-linejoin:miter;stroke-opacity:1"
     id="flowRoot4296"
     xml:space="preserve"><flowRegion
       id="flowRegion4298"><rect
         y="-2071.4741"
         x="-1718.75"
         height="3900"
         width="5706.25"
         id="rect4300" /></flowRegion><flowPara
       style="font-size:20px;line-height:1.25"
       id="flowPara4302"> </flowPara></flowRoot>  <flowRoot
     transform="matrix(0.88888891,0,0,0.88888891,821.18719,562.81191)"
     style="font-style:normal;font-variant:normal;font-weight:normal;font-stretch:normal;line-height:0.01%;font-family:Arial;-inkscape-font-specification:Arial;letter-spacing:0px;word-spacing:0px;fill:#000000;fill-opacity:1;stroke:none;stroke-width:1px;stroke-linecap:butt;stroke-linejoin:miter;stroke-opacity:1"
     id="flowRoot4296-1"
     xml:space="preserve"><flowRegion
       id="flowRegion4298-7"><rect
         y="-2071.4741"
         x="-1718.75"
         height="3900"
         width="5706.25"
         id="rect4300-2" /></flowRegion><flowPara
       style="font-size:20px;line-height:1.25"
       id="flowPara4302-3"> </flowPara></flowRoot>  <path
     style="fill:#ff7d17;stroke-width:0.74764377"
     d="m 46.140334,-3.8212677e-6 c -0.672879,0 -1.345223,-5.354219723e-4 -1.943338,0.074228951268 L 43.897647,3.8878898 C 42.103302,4.112183 40.457852,4.5608665 38.8878,5.2337459 L 36.720558,2.1684552 c -1.19623,0.5233505 -2.317939,1.1956946 -3.36464,1.9433383 l 1.56976,3.4388693 c -1.420524,1.0467013 -2.616754,2.318231 -3.738219,3.6639902 l -3.364641,-1.56976 c -0.747644,1.046701 -1.419988,2.16841 -1.943338,3.36464 l 3.06529,2.167242 c -0.672879,1.570052 -1.121562,3.28973 -1.345856,5.084075 l -3.738218,0.29935 c -0.149529,0.52335 -0.149675,1.19623 -0.149675,1.869109 0,0.67288 -5.35e-4,1.345224 0.07423,1.943339 l 3.738219,0.299349 c 0.224293,1.794345 0.672977,3.514023 1.345856,5.084075 l -3.065291,2.168459 c 0.523351,1.19623 1.196911,2.317939 1.944555,3.364641 l 3.364641,-1.570977 c 1.046701,1.420523 2.317695,2.617288 3.738219,3.66399 l -1.570977,3.438869 c 1.046701,0.747643 2.168411,1.421205 3.364641,1.944555 l 2.168458,-3.065291 c 1.570052,0.67288 3.289049,1.121563 5.008629,1.345856 l 0.299353,3.812448 h 2.018784 c 0.67288,0 1.345224,5.36e-4 1.943339,-0.07423 l 0.299349,-3.813664 c 1.71958,-0.224293 3.439794,-0.672977 5.009846,-1.345857 l 2.167242,3.140737 c 1.19623,-0.52335 2.317939,-1.196912 3.36464,-1.944555 l -1.569759,-3.513101 c 1.420523,-1.046702 2.617288,-2.243467 3.663989,-3.66399 l 3.43887,1.645206 c 0.747643,-1.046702 1.419987,-2.168411 1.943338,-3.364641 l -3.065291,-2.168459 c 0.67288,-1.570052 1.121564,-3.289048 1.345857,-5.008629 l 3.813663,-0.374795 c 0.07476,-0.598115 0.07423,-1.270459 0.07423,-1.943339 0,-0.672879 5.34e-4,-1.345223 -0.07423,-1.943338 l -3.813663,-0.299349 c -0.224293,-1.794345 -0.672977,-3.439795 -1.345857,-5.009847 l 3.140737,-2.167242 c -0.523351,-1.19623 -1.196912,-2.317939 -1.944555,-3.36464 l -3.438869,1.56976 C 60.046508,9.7941295 58.774979,8.5973641 57.42922,7.5506628 L 59.074426,4.1117935 C 58.027724,3.3641498 56.906015,2.6918057 55.709785,2.1684552 L 53.467097,5.2337459 C 51.897045,4.5608665 50.178049,4.112183 48.458468,3.8878898 L 48.159118,0.07422513 C 47.486239,-5.3924324e-4 46.813214,-3.8212677e-6 46.140334,-3.8212677e-6 Z M 39.119005,11.673412 l 6.272955,3.618966 6.270521,3.622616 -3.840435,2.218351 5.339617,9.248197 -4.861388,2.803664 -5.3384,-9.245763 -3.841653,2.21835 v -7.244015 z"
     id="path4-9"
     inkscape:connector-curvature="0">
  </path>
  <path
     sodipodi:nodetypes="ccccccccccccsccccccccccccccccccccccccccccccccccccccsccccccccccc"
     style="fill:#0096de;stroke-width:0.74764377"
     d="m 81.492164,38.096906 -2.48383,2.908647 C 77.424841,40.13232 75.830917,39.528827 74.1652,39.150372 l 0.04805,-3.755049 c -1.275386,-0.279725 -2.57839,-0.393868 -3.864641,-0.404246 l -0.75224,3.704989 c -1.764465,0.01184 -3.478772,0.337319 -5.177075,0.766881 L 62.61996,36.214893 c -1.220092,0.407345 -2.422909,0.919216 -3.549435,1.579369 l 1.205446,3.555795 c -1.467224,0.874691 -2.841236,2.001624 -4.077383,3.321444 l -3.20045,-1.954554 c -0.428589,0.335508 -0.823452,0.879008 -1.218961,1.423379 -0.395508,0.54437 -0.79094,1.088887 -1.082018,1.616718 l 2.848594,2.43993 c -0.873231,1.583491 -1.521054,3.238606 -1.899535,4.904313 l -3.755024,-0.04804 c -0.279727,1.275388 -0.393867,2.578387 -0.404247,3.86464 l 3.644239,0.706764 c 0.01184,1.764464 0.336843,3.479171 0.870836,5.160931 l -3.290827,1.859833 c 0.407348,1.220088 0.918783,2.424039 1.578935,3.550566 l 3.555796,-1.205445 c 0.874687,1.467228 2.002497,2.84014 3.261827,4.032344 l -2.000031,3.2612 1.632862,1.185973 c 0.544369,0.395505 1.088886,0.79094 1.616716,1.082013 l 2.483837,-2.908644 c 1.523009,0.829291 3.177416,1.476731 4.843161,1.855112 l -0.09194,3.815074 c 1.275386,0.279722 2.578384,0.393861 3.864639,0.404244 l 0.796147,-3.765039 c 1.764466,-0.01184 3.435266,-0.276794 5.117025,-0.810784 l 1.815042,3.353145 c 1.220092,-0.407349 2.423345,-0.920354 3.549872,-1.580506 l -1.205448,-3.5558 c 1.467229,-0.874689 2.841278,-2.002057 4.033478,-3.261392 l 3.30397,1.939548 c 0.412051,-0.43994 0.807738,-0.984102 1.203256,-1.52847 0.395503,-0.544372 0.790934,-1.08889 1.08201,-1.616721 l -2.908643,-2.483835 c 0.873233,-1.583491 1.47673,-3.177413 1.85511,-4.84316 l 3.815072,0.09195 c 0.279746,-1.275381 0.393865,-2.578388 0.404244,-3.864642 L 88.614281,57.040341 C 88.602441,55.275878 88.277,53.561133 87.803493,51.923317 L 91.155502,50.10784 C 90.748161,48.88775 90.236289,47.684931 89.576135,46.558405 L 85.95915,47.719506 C 85.084459,46.25228 83.957087,44.878228 82.697755,43.686028 l 1.999594,-3.260064 C 84.196982,39.970092 83.653255,39.574434 83.108886,39.178926 82.564518,38.783419 82.02,38.387987 81.492164,38.096906 Z m -12.426463,11.783237 6.277993,3.612648 6.275566,3.611438 -6.265463,3.630139 -6.267904,3.628925 -0.0062,-4.43548 -10.679226,0.01489 -0.0054,-5.610977 10.676798,-0.01489 z"
     id="path8-9"
     inkscape:connector-curvature="0">
  </path>
  <path
     sodipodi:nodetypes="ccccccccccccscccccccccccccccccccccccccsccccccccccccscccccccccccc"
     style="fill:#30b808;stroke-width:0.74764377"
     d="m 17.722918,35.403993 0.168257,3.820764 c -1.753635,0.441297 -3.332066,1.087439 -4.808402,1.946672 l -2.525787,-2.779015 c -1.1235326,0.665235 -2.1543297,1.470401 -3.102114,2.340032 l 1.9777693,3.222229 C 8.1502665,45.166693 7.117353,46.574347 6.1682537,48.046748 L 2.6382651,46.897958 C 2.02376,48.027984 1.4920427,49.223118 1.1183764,50.474212 l 3.3066537,1.778432 c -0.4765225,1.640353 -0.7117163,3.401159 -0.7156614,5.209464 l -3.67366432,0.75323 c -0.084634,0.537673 -0.0027519,1.20446 0.07925118,1.872323 0.0820034,0.667863 0.16303435,1.336238 0.3101327,1.920783 L 4.1724467,61.850159 c 0.4412964,1.753635 1.0962944,3.405922 1.9555028,4.882267 l -2.777885,2.525331 c 0.6652326,1.123533 1.4692711,2.154786 2.3389028,3.10257 l 3.1483682,-1.968926 c 1.2120175,1.282373 2.6191405,2.314777 4.1566345,3.180557 l -1.139489,3.604979 c 1.130012,0.614506 2.325146,1.146223 3.576239,1.519888 l 1.778433,-3.306652 c 1.640354,0.476526 3.401504,0.711446 5.135604,0.724507 l 0.762529,3.748654 2.003031,-0.246243 c 0.667863,-0.08201 1.335783,-0.164163 1.920326,-0.311265 l -0.168256,-3.820764 c 1.679429,-0.432184 3.332069,-1.087435 4.808373,-1.94674 l 2.53463,2.852873 c 1.123532,-0.665236 2.154328,-1.470404 3.102114,-2.340033 l -1.986587,-3.296027 c 1.282373,-1.212018 2.323617,-2.545279 3.189399,-4.082771 l 3.614276,1.214479 c 0.614509,-1.130018 1.145771,-2.326278 1.519437,-3.577372 l -3.306655,-1.778435 c 0.476523,-1.640353 0.711448,-3.401503 0.724506,-5.1356 l 3.740266,-0.835262 c 0.0013,-0.602769 -0.08154,-1.27015 -0.16354,-1.938013 -0.082,-0.667864 -0.163033,-1.336239 -0.310132,-1.920784 l -3.822348,0.167584 C 40.06483,51.115326 39.42027,49.537567 38.561089,48.061212 l 2.851747,-2.534174 c -0.665219,-1.123539 -1.469272,-2.154785 -2.338903,-3.10257 l -3.222685,1.976641 C 34.63923,43.118735 33.231762,42.086602 31.768473,41.21171 l 1.213352,-3.61382 c -1.130014,-0.61451 -2.324692,-1.145099 -3.575786,-1.518766 l -1.852293,3.315497 C 25.913391,38.9181 24.151782,38.682047 22.417684,38.66899 l -0.760945,-3.747981 c -0.676975,0.0078 -1.345594,0.08971 -2.013459,0.171709 -0.667863,0.082 -1.335782,0.164162 -1.920328,0.311261 z m 7.868216,11.029936 4.717685,3.038734 -5.778757,8.977118 3.731175,2.402594 -6.440553,3.314177 -6.438063,3.313077 0.348512,-7.233188 0.35111,-7.234284 3.728802,2.401262 z"
     id="path1073-6"
     inkscape:connector-curvature="0">
  </path>
  <g
     id="g1320"
     transform="matrix(2.3425878,0,0,2.3425878,-34.554107,-23.04678)">
    <g
       id="g1330"
       transform="translate(-1.8975454,-46.168538)">
      <path
         inkscape:connector-curvature="0"
         d="m 79.002,77.733 h -10.63 l 5.315,-12.099 z m 1.547,3.411 3.412,7.497 h 4.006 L 73.687,57.463 59.407,88.641 h 4.006 l 3.412,-7.497 z"
         id="path9-7" />
      <rect
         x="90.862999"
         y="70.077003"
         width="3.5710001"
         height="18.563999"
         id="rect11-9" />
      <rect
         x="100.938"
         y="70.077003"
         width="3.5699999"
         height="18.563999"
         id="rect13-3" />
      <rect
         x="100.938"
         y="70.077003"
         width="3.5699999"
         height="18.563999"
         id="rect15-8" />
      <path
         d="m 114.584,70.077 h -3.57 v 15.152 3.412 h 3.57 2.499 c 1.96114,0.02078 3.59163,-0.20017 5.382,-0.514 4.896,-1.142 8.915,-4.008 10.65,-8.853 1.747,-4.854 0.97,-11.409 -2.399,-15.254 -3.467,-3.978 -8.521,-5.221 -13.633,-5.221 h -6.069 v 3.412 c 1.68,0 3.359,0 5.038,0 3.988,-0.017 8.487,0.775 11.397,3.729 2.938,2.982 3.51,8.453 2.057,12.281 -1.521,4.008 -5.006,5.92 -9.051,6.645 -1.408,0.245 -2.869,0.37 -4.403,0.363 h -1.309 -0.159 z"
         id="path17-0"
         inkscape:connector-curvature="0"
         sodipodi:nodetypes="cccccccccscccccccccc" />
      <path
         inkscape:connector-curvature="0"
         d="m 152.692,77.733 h -10.631 l 5.315,-12.099 z m 1.547,3.411 3.411,7.497 h 4.007 l -14.28,-31.178 -14.28,31.178 h 4.007 l 3.411,-7.497 z"
         id="path19-2" />
      <path
         style="clip-rule:evenodd;fill-rule:evenodd"
         inkscape:connector-curvature="0"
         d="m 92.648,59.027 c 1.293,0 2.342,1.049 2.342,2.342 0,1.293 -1.049,2.342 -2.342,2.342 -1.293,0 -2.342,-1.048 -2.342,-2.342 0,-1.294 1.048,-2.342 2.342,-2.342"
         id="path21-4" />
      <path
         style="clip-rule:evenodd;fill-rule:evenodd"
         inkscape:connector-curvature="0"
         d="m 102.724,59.027 c 1.293,0 2.342,1.049 2.342,2.342 0,1.293 -1.049,2.342 -2.342,2.342 -1.294,0 -2.342,-1.048 -2.342,-2.342 0,-1.294 1.048,-2.342 2.342,-2.342"
         id="path23-8" />
    </g>
  </g>
</svg>
