<?xml version="1.0" encoding="UTF-8" standalone="no"?>
<svg
   xmlns:dc="http://purl.org/dc/elements/1.1/"
   xmlns:cc="http://creativecommons.org/ns#"
   xmlns:rdf="http://www.w3.org/1999/02/22-rdf-syntax-ns#"
   xmlns:svg="http://www.w3.org/2000/svg"
   xmlns="http://www.w3.org/2000/svg"
   xmlns:sodipodi="http://sodipodi.sourceforge.net/DTD/sodipodi-0.dtd"
   xmlns:inkscape="http://www.inkscape.org/namespaces/inkscape"
   width="440.09848"
   height="323.12982"
   viewBox="0 0 366.74873 269.27485"
   preserveAspectRatio="xMidYMid"
   class="uil-gears"
   version="1.1"
   id="svg12"
   sodipodi:docname="aiidalab_logo_stacked_static_v4.svg"
   inkscape:version="0.92.2 2405546, 2018-03-11"
   inkscape:export-filename="aiidalab_logo_v4.png"
   inkscape:export-xdpi="300.01141"
   inkscape:export-ydpi="300.01141">
  <metadata
     id="metadata18">
    <rdf:RDF>
      <cc:Work
         rdf:about="">
        <dc:format>image/svg+xml</dc:format>
        <dc:type
           rdf:resource="http://purl.org/dc/dcmitype/StillImage" />
        <dc:title></dc:title>
      </cc:Work>
    </rdf:RDF>
  </metadata>
  <defs
     id="defs16">
    <clipPath
       clipPathUnits="userSpaceOnUse"
       id="clipPath4224">
      <rect
         y="-941.92352"
         x="-691.42859"
         height="934.28571"
         width="1548.5715"
         id="rect4226"
         style="opacity:1;fill:#ffffff;fill-opacity:1;stroke:none;stroke-width:0.5;stroke-linecap:square;stroke-linejoin:miter;stroke-miterlimit:4;stroke-dasharray:none;stroke-dashoffset:0;stroke-opacity:1" />
    </clipPath>
    <clipPath
       clipPathUnits="userSpaceOnUse"
       id="clipPath4230">
      <rect
         style="opacity:1;fill:#ffffff;fill-opacity:1;stroke:#000000;stroke-width:0.67285109;stroke-linecap:square;stroke-linejoin:miter;stroke-miterlimit:4;stroke-dasharray:none;stroke-dashoffset:0;stroke-opacity:1"
         id="rect4232"
         width="1825.5415"
         height="1051.2557"
         x="-979.91364"
         y="-590.40851" />
    </clipPath>
    <clipPath
       clipPathUnits="userSpaceOnUse"
       id="clipPath4250">
      <rect
         style="opacity:1;fill:#ffffff;fill-opacity:1;stroke:none;stroke-width:20;stroke-linecap:square;stroke-linejoin:miter;stroke-miterlimit:4;stroke-dasharray:none;stroke-dashoffset:0;stroke-opacity:1"
         id="rect4252"
         width="888.41724"
         height="393.91031"
         x="-277.13654"
         y="-937.26233" />
    </clipPath>
    <clipPath
       clipPathUnits="userSpaceOnUse"
       id="clipPath4262">
      <rect
         style="opacity:1;fill:#ffffff;fill-opacity:1;stroke:none;stroke-width:20;stroke-linecap:square;stroke-linejoin:miter;stroke-miterlimit:4;stroke-dasharray:none;stroke-dashoffset:0;stroke-opacity:1"
         id="rect4264"
         width="1490.625"
         height="696.875"
         x="-640"
         y="-663.26282" />
    </clipPath>
    <clipPath
       clipPathUnits="userSpaceOnUse"
       id="clipPath4341">
      <rect
         style="opacity:1;fill:#ffffff;fill-opacity:1;stroke:none;stroke-width:20;stroke-linecap:square;stroke-linejoin:miter;stroke-miterlimit:4;stroke-dasharray:none;stroke-dashoffset:0;stroke-opacity:1"
         id="rect4343"
         width="1389.6031"
         height="576.05365"
         x="-556.14594"
         y="-610.65808" />
    </clipPath>
    <clipPath
       id="clipPath4224-3"
       clipPathUnits="userSpaceOnUse">
      <rect
         style="opacity:1;fill:#ffffff;fill-opacity:1;stroke:none;stroke-width:0.5;stroke-linecap:square;stroke-linejoin:miter;stroke-miterlimit:4;stroke-dasharray:none;stroke-dashoffset:0;stroke-opacity:1"
         id="rect4226-9"
         width="1548.5715"
         height="934.28571"
         x="-691.42859"
         y="-941.92352" />
    </clipPath>
    <clipPath
       id="clipPath4230-8"
       clipPathUnits="userSpaceOnUse">
      <rect
         y="-590.40851"
         x="-979.91364"
         height="1051.2557"
         width="1825.5415"
         id="rect4232-6"
         style="opacity:1;fill:#ffffff;fill-opacity:1;stroke:#000000;stroke-width:0.67285109;stroke-linecap:square;stroke-linejoin:miter;stroke-miterlimit:4;stroke-dasharray:none;stroke-dashoffset:0;stroke-opacity:1" />
    </clipPath>
    <clipPath
       id="clipPath4250-5"
       clipPathUnits="userSpaceOnUse">
      <rect
         y="-937.26233"
         x="-277.13654"
         height="393.91031"
         width="888.41724"
         id="rect4252-7"
         style="opacity:1;fill:#ffffff;fill-opacity:1;stroke:none;stroke-width:20;stroke-linecap:square;stroke-linejoin:miter;stroke-miterlimit:4;stroke-dasharray:none;stroke-dashoffset:0;stroke-opacity:1" />
    </clipPath>
    <clipPath
       id="clipPath4262-6"
       clipPathUnits="userSpaceOnUse">
      <rect
         y="-663.26282"
         x="-640"
         height="696.875"
         width="1490.625"
         id="rect4264-2"
         style="opacity:1;fill:#ffffff;fill-opacity:1;stroke:none;stroke-width:20;stroke-linecap:square;stroke-linejoin:miter;stroke-miterlimit:4;stroke-dasharray:none;stroke-dashoffset:0;stroke-opacity:1" />
    </clipPath>
    <clipPath
       id="clipPath4341-7"
       clipPathUnits="userSpaceOnUse">
      <rect
         y="-610.65808"
         x="-556.14594"
         height="576.05365"
         width="1389.6031"
         id="rect4343-0"
         style="opacity:1;fill:#ffffff;fill-opacity:1;stroke:none;stroke-width:20;stroke-linecap:square;stroke-linejoin:miter;stroke-miterlimit:4;stroke-dasharray:none;stroke-dashoffset:0;stroke-opacity:1" />
    </clipPath>
  </defs>
  <sodipodi:namedview
     pagecolor="#ffffff"
     bordercolor="#666666"
     borderopacity="1"
     objecttolerance="10"
     gridtolerance="10"
     guidetolerance="10"
     inkscape:pageopacity="0"
     inkscape:pageshadow="2"
     inkscape:window-width="1440"
     inkscape:window-height="856"
     id="namedview14"
     showgrid="false"
     inkscape:zoom="0.69532165"
     inkscape:cx="449.95482"
     inkscape:cy="-44.910951"
     inkscape:window-x="69"
     inkscape:window-y="15"
     inkscape:window-maximized="0"
     inkscape:current-layer="svg12"
     fit-margin-top="0"
     fit-margin-left="0"
     fit-margin-right="0"
     fit-margin-bottom="0"
     inkscape:snap-global="false" />
  <g
     id="g1006"
     transform="matrix(2.1242481,0,0,2.1242481,79.891719,-754.11757)">
    <path
       inkscape:connector-curvature="0"
       id="path4-9-7"
       d="m 48.69624,355.00455 c -0.67288,0 -1.34522,-5e-4 -1.94333,0.074 l -0.29935,3.8137 c -1.79435,0.2243 -3.4398,0.673 -5.00985,1.3458 l -2.16724,-3.0652 c -1.19623,0.5233 -2.31794,1.1956 -3.36464,1.9433 l 1.56976,3.4389 c -1.42053,1.0467 -2.61676,2.3182 -3.73822,3.664 l -3.36464,-1.5698 c -0.74765,1.0467 -1.41999,2.16843 -1.94334,3.36463 l 3.06529,2.1673 c -0.67288,1.57 -1.12156,3.2897 -1.34586,5.0841 l -3.73821,0.2993 c -0.14953,0.5234 -0.14968,1.1962 -0.14968,1.8691 0,0.6729 -5.3e-4,1.3452 0.0742,1.9433 l 3.73822,0.2994 c 0.22429,1.7943 0.67298,3.514 1.34586,5.0841 l -3.0653,2.1684 c 0.52336,1.1963 1.19692,2.318 1.94456,3.3647 l 3.36464,-1.571 c 1.0467,1.4205 2.3177,2.6173 3.73822,3.664 l -1.57098,3.4389 c 1.0467,0.7476 2.16841,1.4212 3.36464,1.9445 l 2.16846,-3.0653 c 1.57005,0.6729 3.28905,1.1216 5.00863,1.3459 l 0.29935,3.8124 h 2.01879 c 0.67288,0 1.34522,6e-4 1.94334,-0.074 l 0.29935,-3.8137 c 1.71958,-0.2243 3.43979,-0.6729 5.00984,-1.3458 l 2.16724,3.1407 c 1.19623,-0.5233 2.31794,-1.1969 3.36464,-1.9445 l -1.56975,-3.5131 c 1.42052,-1.0467 2.61728,-2.2435 3.66398,-3.664 l 3.43887,1.6452 c 0.74765,-1.0467 1.41999,-2.1684 1.94334,-3.3647 l -3.06529,-2.1684 c 0.67288,-1.5701 1.12156,-3.2891 1.34586,-5.0087 l 3.81366,-0.3748 c 0.0748,-0.5981 0.0742,-1.2704 0.0742,-1.9433 0,-0.6729 5.4e-4,-1.3452 -0.0742,-1.9433 l -3.81366,-0.2994 c -0.2243,-1.7943 -0.67298,-3.4398 -1.34586,-5.0098 l 3.14074,-2.1673 c -0.52335,-1.1962 -1.19691,-2.31793 -1.94456,-3.36463 l -3.43887,1.5697 c -1.0467,-1.4205 -2.31823,-2.6172 -3.66399,-3.6639 l 1.64521,-3.4389 c -1.04671,-0.7477 -2.16841,-1.42 -3.36465,-1.9433 l -2.24268,3.0652 c -1.57005,-0.6728 -3.28905,-1.1215 -5.00863,-1.3458 l -0.29935,-3.8137 c -0.67288,-0.075 -1.34591,-0.074 -2.01879,-0.074 z m -7.02132,11.67343 6.27295,3.619 6.27052,3.6226 -3.84043,2.2183 5.33961,9.2482 -4.86138,2.8037 -5.33841,-9.2458 -3.84165,2.2184 v -7.244 z"
       style="fill:#ff7d17;stroke-width:0.74764377" />
    <path
       inkscape:connector-curvature="0"
       id="path8-9-3"
       d="m 84.04807,393.10148 -2.48383,2.9087 c -1.58349,-0.8733 -3.17741,-1.4768 -4.84313,-1.8552 l 0.048,-3.7551 c -1.27539,-0.2797 -2.57839,-0.3938 -3.86464,-0.4042 l -0.75224,3.705 c -1.76447,0.012 -3.47877,0.3373 -5.17708,0.7668 l -1.79933,-3.248 c -1.22009,0.4073 -2.42291,0.9192 -3.54944,1.5794 l 1.20545,3.5558 c -1.46722,0.8746 -2.84123,2.0016 -4.07738,3.3214 l -3.20045,-1.9546 c -0.42859,0.3356 -0.82345,0.8791 -1.21896,1.4234 -0.39551,0.5444 -0.79094,1.0889 -1.08202,1.6167 l 2.84859,2.44 c -0.87323,1.5835 -1.52105,3.2386 -1.89953,4.9043 l -3.75503,-0.048 c -0.27972,1.2754 -0.39386,2.5784 -0.40424,3.8647 l 3.64424,0.7068 c 0.0118,1.7644 0.33684,3.4791 0.87083,5.1609 l -3.29083,1.8598 c 0.40735,1.2201 0.91879,2.4241 1.57894,3.5506 l 3.5558,-1.2055 c 0.87468,1.4673 2.00249,2.8402 3.26182,4.0324 l -2.00003,3.2612 1.63286,1.186 c 0.54437,0.3955 1.08889,0.7909 1.61672,1.082 l 2.48384,-2.9087 c 1.52301,0.8293 3.17741,1.4768 4.84316,1.8551 l -0.0919,3.81507 c 1.27538,0.2797 2.57838,0.3939 3.86464,0.4043 l 0.79614,-3.76507 c 1.76447,-0.012 3.43527,-0.2768 5.11703,-0.8108 l 1.81504,3.35317 c 1.22009,-0.40737 2.42335,-0.92037 3.54987,-1.58047 l -1.20545,-3.5558 c 1.46723,-0.8747 2.84128,-2.0021 4.03348,-3.2614 l 3.30397,1.9395 c 0.41205,-0.4399 0.80774,-0.9841 1.20326,-1.5284 0.3955,-0.5444 0.79093,-1.0889 1.08201,-1.6168 l -2.90864,-2.4838 c 0.87323,-1.5835 1.47673,-3.1774 1.85511,-4.8432 l 3.81507,0.092 c 0.27974,-1.2754 0.39386,-2.5784 0.40424,-3.8647 l -3.70385,-0.7518 c -0.0118,-1.7644 -0.33728,-3.4792 -0.81079,-5.117 l 3.35201,-1.8155 c -0.40734,-1.22 -0.91921,-2.4229 -1.57936,-3.5494 l -3.61699,1.1611 c -0.87469,-1.4672 -2.00206,-2.8413 -3.26139,-4.0335 l 1.99959,-3.26 c -0.50037,-0.4559 -1.0441,-0.8516 -1.58846,-1.2471 -0.54437,-0.3955 -1.08889,-0.7909 -1.61673,-1.082 z m -12.42646,11.7832 6.27799,3.6127 6.27557,3.6114 -6.26546,3.6302 -6.26791,3.6289 -0.006,-4.4355 -10.67922,0.015 -0.005,-5.611 10.67679,-0.015 z"
       style="fill:#0096de;stroke-width:0.74764377"
       sodipodi:nodetypes="ccccccccccccsccccccccccccccccccccccccccccccccccccccsccccccccccc" />
    <path
       inkscape:connector-curvature="0"
       id="path1073-6-7"
       d="m 20.27883,390.40858 0.16825,3.8208 c -1.75363,0.4413 -3.33206,1.0874 -4.8084,1.9466 l -2.52578,-2.779 c -1.12354,0.6652 -2.15433,1.4704 -3.10212,2.34 l 1.97777,3.2223 c -1.28237,1.212 -2.3152896,2.6196 -3.2643896,4.092 l -3.52998,-1.1487 c -0.61451,1.13 -1.14623,2.3251 -1.51989,3.5762 l 3.30665,1.7784 c -0.47652,1.6404 -0.71172,3.4012 -0.71566,5.2095 l -3.67367,0.7532 c -0.0846,0.5377 -0.003,1.2045 0.0793,1.8724 0.082,0.6678 0.16303,1.3362 0.31013,1.9207 l 3.74736,-0.1582 c 0.44129,1.7536 1.09629,3.4059 1.9555,4.8822 l -2.77789,2.5254 c 0.66524,1.1235 1.46928,2.1547 2.33891,3.1025 l 3.1483696,-1.9689 c 1.21201,1.2824 2.61914,2.3148 4.15663,3.1806 l -1.13949,3.6049 c 1.13001,0.6145 2.32515,1.1463 3.57624,1.51987 l 1.77843,-3.30657 c 1.64036,0.4765 3.40151,0.7114 5.13561,0.7245 l 0.76253,3.74857 2.00303,-0.2462 c 0.66786,-0.082 1.33578,-0.1642 1.92032,-0.3113 l -0.16825,-3.82067 c 1.67943,-0.4322 3.33207,-1.0875 4.80837,-1.9468 l 2.53463,2.8529 c 1.12353,-0.6652 2.15433,-1.4704 3.10211,-2.34 l -1.98658,-3.2961 c 1.28237,-1.212 2.32361,-2.5452 3.1894,-4.0827 l 3.61427,1.2144 c 0.61451,-1.13 1.14577,-2.3262 1.51944,-3.5773 l -3.30666,-1.7785 c 0.47653,-1.6403 0.71145,-3.4015 0.72451,-5.1356 l 3.74027,-0.8352 c 10e-4,-0.6028 -0.0815,-1.2702 -0.16354,-1.938 -0.082,-0.6679 -0.16304,-1.3363 -0.31014,-1.9208 l -3.82234,0.1676 c -0.4413,-1.7537 -1.08586,-3.3314 -1.94504,-4.8078 l 2.85175,-2.5342 c -0.66522,-1.1235 -1.46928,-2.1547 -2.33891,-3.1025 l -3.22268,1.9766 c -1.21202,-1.2824 -2.61949,-2.3145 -4.08278,-3.1894 l 1.21335,-3.6138 c -1.13001,-0.6145 -2.32469,-1.1451 -3.57578,-1.5188 l -1.85229,3.3155 c -1.64036,-0.4765 -3.40197,-0.7126 -5.13607,-0.7256 l -0.76094,-3.748 c -0.67698,0.01 -1.3456,0.09 -2.01346,0.1717 -0.66786,0.082 -1.33578,0.1642 -1.92033,0.3113 z m 7.86821,11.0299 4.71769,3.0388 -5.77876,8.9771 3.73118,2.4026 -6.44056,3.3142 -6.43806,3.313 0.34851,-7.2332 0.35111,-7.2342 3.72881,2.4012 z"
       style="fill:#30b808;stroke-width:0.74764377"
       sodipodi:nodetypes="ccccccccccccscccccccccccccccccccccccccsccccccccccccscccccccccccc" />
  </g>
  <text
     xml:space="preserve"
     style="font-style:normal;font-weight:normal;font-size:90.93605804px;line-height:1.25em;font-family:sans-serif;letter-spacing:0px;word-spacing:0px;fill:#ff0000;fill-opacity:1;stroke:none;stroke-width:4.26262712px;stroke-linecap:butt;stroke-linejoin:miter;stroke-opacity:1"
     x="239.22513"
     y="268.03159"
     id="text2119"><tspan
       sodipodi:role="line"
       id="tspan2117"
       x="239.22513"
       y="268.03159"
       style="font-style:normal;font-variant:normal;font-weight:500;font-stretch:normal;font-family:Futura;-inkscape-font-specification:'Futura Medium';fill:#b3b3b3;stroke:none;stroke-width:4.26262712px">lab</tspan></text>
  <flowRoot
     transform="matrix(0.88888891,0,0,0.88888891,238.87469,-352.04236)"
     style="font-style:normal;font-variant:normal;font-weight:normal;font-stretch:normal;line-height:0.01%;font-family:Arial;-inkscape-font-specification:Arial;letter-spacing:0px;word-spacing:0px;fill:#000000;fill-opacity:1;stroke:none;stroke-width:1px;stroke-linecap:butt;stroke-linejoin:miter;stroke-opacity:1"
     id="flowRoot4296"
     xml:space="preserve"><flowRegion
       id="flowRegion4298"><rect
         y="-2071.4741"
         x="-1718.75"
         height="3900"
         width="5706.25"
         id="rect4300" /></flowRegion><flowPara
       style="font-size:20px;line-height:1.25"
       id="flowPara4302"> </flowPara></flowRoot>  <flowRoot
     transform="matrix(0.88888891,0,0,0.88888891,721.02035,754.3947)"
     style="font-style:normal;font-variant:normal;font-weight:normal;font-stretch:normal;line-height:0.01%;font-family:Arial;-inkscape-font-specification:Arial;letter-spacing:0px;word-spacing:0px;fill:#000000;fill-opacity:1;stroke:none;stroke-width:1px;stroke-linecap:butt;stroke-linejoin:miter;stroke-opacity:1"
     id="flowRoot4296-1"
     xml:space="preserve"><flowRegion
       id="flowRegion4298-7"><rect
         y="-2071.4741"
         x="-1718.75"
         height="3900"
         width="5706.25"
         id="rect4300-2" /></flowRegion><flowPara
       style="font-size:20px;line-height:1.25"
       id="flowPara4302-3"> </flowPara></flowRoot>  <g
     id="g1320"
     transform="matrix(2.3425878,0,0,2.3425878,-134.72095,168.53601)">
    <g
       id="g1330"
       transform="translate(-1.8975454,-46.168538)">
      <path
         inkscape:connector-curvature="0"
         d="m 79.002,77.733 h -10.63 l 5.315,-12.099 z m 1.547,3.411 3.412,7.497 h 4.006 L 73.687,57.463 59.407,88.641 h 4.006 l 3.412,-7.497 z"
         id="path9-7" />
      <rect
         x="90.862999"
         y="70.077003"
         width="3.5710001"
         height="18.563999"
         id="rect11-9" />
      <rect
         x="100.938"
         y="70.077003"
         width="3.5699999"
         height="18.563999"
         id="rect13-3" />
      <rect
         x="100.938"
         y="70.077003"
         width="3.5699999"
         height="18.563999"
         id="rect15-8" />
      <path
         d="m 114.584,70.077 h -3.57 v 15.152 3.412 h 3.57 2.499 c 1.96114,0.02078 3.59163,-0.20017 5.382,-0.514 4.896,-1.142 8.915,-4.008 10.65,-8.853 1.747,-4.854 0.97,-11.409 -2.399,-15.254 -3.467,-3.978 -8.521,-5.221 -13.633,-5.221 h -6.069 v 3.412 c 1.68,0 3.359,0 5.038,0 3.988,-0.017 8.487,0.775 11.397,3.729 2.938,2.982 3.51,8.453 2.057,12.281 -1.521,4.008 -5.006,5.92 -9.051,6.645 -1.408,0.245 -2.869,0.37 -4.403,0.363 h -1.309 -0.159 z"
         id="path17-0"
         inkscape:connector-curvature="0"
         sodipodi:nodetypes="cccccccccscccccccccc" />
      <path
         inkscape:connector-curvature="0"
         d="m 152.692,77.733 h -10.631 l 5.315,-12.099 z m 1.547,3.411 3.411,7.497 h 4.007 l -14.28,-31.178 -14.28,31.178 h 4.007 l 3.411,-7.497 z"
         id="path19-2" />
      <path
         style="clip-rule:evenodd;fill-rule:evenodd"
         inkscape:connector-curvature="0"
         d="m 92.648,59.027 c 1.293,0 2.342,1.049 2.342,2.342 0,1.293 -1.049,2.342 -2.342,2.342 -1.293,0 -2.342,-1.048 -2.342,-2.342 0,-1.294 1.048,-2.342 2.342,-2.342"
         id="path21-4" />
      <path
         style="clip-rule:evenodd;fill-rule:evenodd"
         inkscape:connector-curvature="0"
         d="m 102.724,59.027 c 1.293,0 2.342,1.049 2.342,2.342 0,1.293 -1.049,2.342 -2.342,2.342 -1.294,0 -2.342,-1.048 -2.342,-2.342 0,-1.294 1.048,-2.342 2.342,-2.342"
         id="path23-8" />
    </g>
  </g>
  <flowRoot
     transform="matrix(0.88888891,0,0,0.88888891,874.93085,711.37985)"
     style="font-style:normal;font-variant:normal;font-weight:normal;font-stretch:normal;line-height:0.01%;font-family:Arial;-inkscape-font-specification:Arial;letter-spacing:0px;word-spacing:0px;fill:#000000;fill-opacity:1;stroke:none;stroke-width:1px;stroke-linecap:butt;stroke-linejoin:miter;stroke-opacity:1"
     id="flowRoot4296-4"
     xml:space="preserve"><flowRegion
       id="flowRegion4298-8"><rect
         y="-2071.4741"
         x="-1718.75"
         height="3900"
         width="5706.25"
         id="rect4300-3" /></flowRegion><flowPara
       style="font-size:20px;line-height:1.25"
       id="flowPara4302-9"> </flowPara></flowRoot>  <flowRoot
     transform="matrix(0.88888891,0,0,0.88888891,1357.0765,1817.8169)"
     style="font-style:normal;font-variant:normal;font-weight:normal;font-stretch:normal;line-height:0.01%;font-family:Arial;-inkscape-font-specification:Arial;letter-spacing:0px;word-spacing:0px;fill:#000000;fill-opacity:1;stroke:none;stroke-width:1px;stroke-linecap:butt;stroke-linejoin:miter;stroke-opacity:1"
     id="flowRoot4296-1-0"
     xml:space="preserve"><flowRegion
       id="flowRegion4298-7-5"><rect
         y="-2071.4741"
         x="-1718.75"
         height="3900"
         width="5706.25"
         id="rect4300-2-2" /></flowRegion><flowPara
       style="font-size:20px;line-height:1.25"
       id="flowPara4302-3-2"> </flowPara></flowRoot></svg>
