<?xml version="1.0" encoding="UTF-8" standalone="no"?>
<svg
   xmlns:dc="http://purl.org/dc/elements/1.1/"
   xmlns:cc="http://creativecommons.org/ns#"
   xmlns:rdf="http://www.w3.org/1999/02/22-rdf-syntax-ns#"
   xmlns:svg="http://www.w3.org/2000/svg"
   xmlns="http://www.w3.org/2000/svg"
   xmlns:sodipodi="http://sodipodi.sourceforge.net/DTD/sodipodi-0.dtd"
   xmlns:inkscape="http://www.inkscape.org/namespaces/inkscape"
   width="110.78176"
   height="110.78176"
   viewBox="0 0 92.318135 92.318134"
   preserveAspectRatio="xMidYMid"
   class="uil-gears"
   version="1.1"
   id="svg12"
   sodipodi:docname="aiidalab_gears_square_static_v4.svg"
   inkscape:version="0.92.2 2405546, 2018-03-11"
   inkscape:export-filename="/Users/leopold/Downloads/aiidalab-icon/aiidalab_arrows_v1a.png"
   inkscape:export-xdpi="799.94525"
   inkscape:export-ydpi="799.94525">
  <metadata
     id="metadata18">
    <rdf:RDF>
      <cc:Work
         rdf:about="">
        <dc:format>image/svg+xml</dc:format>
        <dc:type
           rdf:resource="http://purl.org/dc/dcmitype/StillImage" />
        <dc:title></dc:title>
      </cc:Work>
    </rdf:RDF>
  </metadata>
  <defs
     id="defs16" />
  <sodipodi:namedview
     pagecolor="#ffffff"
     bordercolor="#666666"
     borderopacity="1"
     objecttolerance="10"
     gridtolerance="10"
     guidetolerance="10"
     inkscape:pageopacity="0"
     inkscape:pageshadow="2"
     inkscape:window-width="1245"
     inkscape:window-height="856"
     id="namedview14"
     showgrid="false"
     inkscape:zoom="0.49166667"
     inkscape:cx="347.48674"
     inkscape:cy="-18.427318"
     inkscape:window-x="90"
     inkscape:window-y="7"
     inkscape:window-maximized="0"
     inkscape:current-layer="svg12"
     fit-margin-top="0"
     fit-margin-left="0"
     fit-margin-right="0"
     fit-margin-bottom="0"
     inkscape:snap-global="false" />
  <flowRoot
     transform="matrix(0.88888891,0,0,0.88888891,339.04153,-531.17035)"
     style="font-style:normal;font-variant:normal;font-weight:normal;font-stretch:normal;line-height:0.01%;font-family:Arial;-inkscape-font-specification:Arial;letter-spacing:0px;word-spacing:0px;fill:#000000;fill-opacity:1;stroke:none;stroke-width:1px;stroke-linecap:butt;stroke-linejoin:miter;stroke-opacity:1"
     id="flowRoot4296"
     xml:space="preserve"><flowRegion
       id="flowRegion4298"><rect
         y="-2071.4741"
         x="-1718.75"
         height="3900"
         width="5706.25"
         id="rect4300" /></flowRegion><flowPara
       style="font-size:20px;line-height:1.25"
       id="flowPara4302"> </flowPara></flowRoot>  <flowRoot
     transform="matrix(0.88888891,0,0,0.88888891,821.18719,575.26671)"
     style="font-style:normal;font-variant:normal;font-weight:normal;font-stretch:normal;line-height:0.01%;font-family:Arial;-inkscape-font-specification:Arial;letter-spacing:0px;word-spacing:0px;fill:#000000;fill-opacity:1;stroke:none;stroke-width:1px;stroke-linecap:butt;stroke-linejoin:miter;stroke-opacity:1"
     id="flowRoot4296-1"
     xml:space="preserve"><flowRegion
       id="flowRegion4298-7"><rect
         y="-2071.4741"
         x="-1718.75"
         height="3900"
         width="5706.25"
         id="rect4300-2" /></flowRegion><flowPara
       style="font-size:20px;line-height:1.25"
       id="flowPara4302-3"> </flowPara></flowRoot>  <g
     id="g867"
     transform="translate(0,-6.2273962)">
    <path
       inkscape:connector-curvature="0"
       id="path4-9"
       d="m 46.140334,12.454795 c -0.672879,0 -1.345223,-5.35e-4 -1.943338,0.07423 l -0.299349,3.813665 c -1.794345,0.224293 -3.439795,0.672976 -5.009847,1.345856 l -2.167242,-3.065291 c -1.19623,0.52335 -2.317939,1.195695 -3.36464,1.943338 l 1.56976,3.43887 c -1.420524,1.046701 -2.616754,2.318231 -3.738219,3.66399 l -3.364641,-1.56976 c -0.747644,1.046701 -1.419988,2.16841 -1.943338,3.36464 l 3.06529,2.167242 c -0.672879,1.570052 -1.121562,3.28973 -1.345856,5.084075 L 23.860696,33.015 c -0.149529,0.52335 -0.149675,1.19623 -0.149675,1.869109 0,0.67288 -5.35e-4,1.345224 0.07423,1.943339 l 3.738219,0.299349 c 0.224293,1.794345 0.672977,3.514023 1.345856,5.084075 l -3.065291,2.168459 c 0.523351,1.19623 1.196911,2.317939 1.944555,3.364641 l 3.364641,-1.570977 c 1.046701,1.420523 2.317695,2.617288 3.738219,3.66399 l -1.570977,3.438869 c 1.046701,0.747643 2.168411,1.421205 3.364641,1.944555 l 2.168458,-3.065291 c 1.570052,0.67288 3.289049,1.121563 5.008629,1.345856 l 0.299353,3.812448 h 2.018784 c 0.67288,0 1.345224,5.36e-4 1.943339,-0.07423 l 0.299349,-3.813664 c 1.71958,-0.224293 3.439794,-0.672977 5.009846,-1.345857 l 2.167242,3.140737 c 1.19623,-0.52335 2.317939,-1.196912 3.36464,-1.944555 l -1.569759,-3.513101 c 1.420523,-1.046702 2.617288,-2.243467 3.663989,-3.66399 l 3.43887,1.645206 c 0.747643,-1.046702 1.419987,-2.168411 1.943338,-3.364641 l -3.065291,-2.168459 c 0.67288,-1.570052 1.121564,-3.289048 1.345857,-5.008629 l 3.813663,-0.374795 c 0.07476,-0.598115 0.07423,-1.270459 0.07423,-1.943339 0,-0.672879 5.34e-4,-1.345223 -0.07423,-1.943338 l -3.813663,-0.29935 C 64.457465,30.847072 64.008781,29.201622 63.335901,27.63157 l 3.140737,-2.167242 c -0.523351,-1.19623 -1.196912,-2.317939 -1.944555,-3.36464 l -3.438869,1.56976 c -1.046706,-1.42052 -2.318235,-2.617285 -3.663994,-3.663986 l 1.645206,-3.43887 c -1.046702,-0.747643 -2.168411,-1.419988 -3.364641,-1.943338 l -2.242688,3.065291 c -1.570052,-0.67288 -3.289048,-1.121563 -5.008629,-1.345856 l -0.29935,-3.813665 c -0.672879,-0.07476 -1.345904,-0.07423 -2.018784,-0.07423 z m -7.021329,11.673416 6.272955,3.618966 6.270521,3.622616 -3.840435,2.218351 5.339617,9.248197 -4.861388,2.803664 -5.3384,-9.245763 -3.841653,2.21835 v -7.244015 z"
       style="fill:#ff7d17;stroke-width:0.74764377" />
    <path
       inkscape:connector-curvature="0"
       id="path8-9"
       d="m 81.492164,50.551705 -2.48383,2.908647 C 77.424841,52.587119 75.830917,51.983626 74.1652,51.605171 l 0.04805,-3.755049 c -1.275386,-0.279725 -2.57839,-0.393868 -3.864641,-0.404246 l -0.75224,3.704989 c -1.764465,0.01184 -3.478772,0.337319 -5.177075,0.766881 L 62.61996,48.669692 c -1.220092,0.407345 -2.422909,0.919216 -3.549435,1.579369 l 1.205446,3.555795 c -1.467224,0.874691 -2.841236,2.001624 -4.077383,3.321444 l -3.20045,-1.954554 c -0.428589,0.335508 -0.823452,0.879008 -1.218961,1.423379 -0.395508,0.54437 -0.79094,1.088887 -1.082018,1.616718 l 2.848594,2.43993 c -0.873231,1.583491 -1.521054,3.238606 -1.899535,4.904313 l -3.755024,-0.04804 c -0.279727,1.275388 -0.393867,2.578387 -0.404247,3.86464 l 3.644239,0.706764 c 0.01184,1.764464 0.336843,3.479171 0.870836,5.160931 l -3.290827,1.859833 c 0.407348,1.220088 0.918783,2.424039 1.578935,3.550566 l 3.555796,-1.205445 c 0.874687,1.467228 2.002497,2.84014 3.261827,4.032344 l -2.000031,3.2612 1.632862,1.185973 c 0.544369,0.395505 1.088886,0.79094 1.616716,1.082013 l 2.483837,-2.908644 c 1.523009,0.829291 3.177416,1.476731 4.843161,1.855112 l -0.09194,3.815074 c 1.275386,0.279722 2.578384,0.393861 3.864639,0.404244 l 0.796147,-3.765039 c 1.764466,-0.01184 3.435266,-0.276794 5.117025,-0.810784 l 1.815042,3.353145 c 1.220092,-0.407349 2.423345,-0.920354 3.549872,-1.580506 l -1.205448,-3.5558 c 1.467229,-0.874689 2.841278,-2.002057 4.033478,-3.261392 l 3.30397,1.939548 c 0.412051,-0.43994 0.807738,-0.984102 1.203256,-1.52847 0.395503,-0.544372 0.790934,-1.08889 1.08201,-1.616721 l -2.908643,-2.483835 c 0.873233,-1.583491 1.47673,-3.177413 1.85511,-4.84316 l 3.815072,0.09195 c 0.279746,-1.275381 0.393865,-2.578388 0.404244,-3.864642 L 88.614281,69.49514 C 88.602441,67.730677 88.277,66.015932 87.803493,64.378116 l 3.352009,-1.815477 c -0.407341,-1.22009 -0.919213,-2.422909 -1.579367,-3.549435 l -3.616985,1.161101 c -0.874691,-1.467226 -2.002063,-2.841278 -3.261395,-4.033478 l 1.999594,-3.260064 C 84.196982,52.424891 83.653255,52.029233 83.108886,51.633725 82.564518,51.238218 82.02,50.842786 81.492164,50.551705 Z m -12.426463,11.783237 6.277993,3.612648 6.275566,3.611438 -6.265463,3.630139 -6.267904,3.628925 -0.0062,-4.43548 -10.679226,0.01489 -0.0054,-5.610977 10.676798,-0.01489 z"
       style="fill:#0096de;stroke-width:0.74764377"
       sodipodi:nodetypes="ccccccccccccsccccccccccccccccccccccccccccccccccccccsccccccccccc" />
    <path
       inkscape:connector-curvature="0"
       id="path1073-6"
       d="m 17.722918,47.858792 0.168257,3.820764 c -1.753635,0.441297 -3.332066,1.087439 -4.808402,1.946672 l -2.525787,-2.779015 c -1.1235325,0.665235 -2.1543296,1.470401 -3.1021139,2.340032 l 1.9777693,3.222229 c -1.2823748,1.212018 -2.3152883,2.619672 -3.2643876,4.092073 l -3.5299886,-1.14879 c -0.6145051,1.130026 -1.1462224,2.32516 -1.5198887,3.576254 l 3.3066537,1.778432 c -0.4765225,1.640353 -0.7117163,3.401159 -0.7156614,5.209464 l -3.6736643,0.75323 c -0.084634,0.537673 -0.0027519,1.20446 0.07925118,1.872323 0.0820034,0.667863 0.16303435,1.336238 0.3101327,1.920783 L 4.1724468,74.304958 c 0.4412964,1.753635 1.0962944,3.405922 1.9555028,4.882267 l -2.777885,2.525331 c 0.6652326,1.123533 1.4692711,2.154786 2.3389028,3.10257 L 8.8373356,82.8462 c 1.2120174,1.282373 2.6191404,2.314777 4.1566344,3.180557 l -1.139489,3.604979 c 1.130012,0.614506 2.325146,1.146223 3.576239,1.519888 l 1.778433,-3.306652 c 1.640354,0.476526 3.401504,0.711446 5.135604,0.724507 l 0.762529,3.748654 2.003031,-0.246243 c 0.667863,-0.08201 1.335783,-0.164163 1.920326,-0.311265 l -0.168256,-3.820764 c 1.679429,-0.432184 3.332069,-1.087435 4.808373,-1.94674 l 2.53463,2.852873 c 1.123532,-0.665236 2.154328,-1.470404 3.102114,-2.340033 l -1.986587,-3.296027 c 1.282373,-1.212018 2.323617,-2.545279 3.189399,-4.082771 l 3.614276,1.214479 c 0.614509,-1.130018 1.145771,-2.326278 1.519437,-3.577372 l -3.306655,-1.778435 c 0.476523,-1.640353 0.711448,-3.401503 0.724506,-5.1356 l 3.740266,-0.835262 c 0.0013,-0.602769 -0.08154,-1.27015 -0.16354,-1.938013 -0.082,-0.667864 -0.163033,-1.336239 -0.310132,-1.920784 L 40.506126,65.32376 C 40.06483,63.570125 39.42027,61.992366 38.561089,60.516011 l 2.851747,-2.534174 c -0.665219,-1.123539 -1.469272,-2.154785 -2.338903,-3.10257 l -3.222685,1.976641 C 34.63923,55.573534 33.231762,54.541401 31.768473,53.666509 l 1.213352,-3.61382 c -1.130014,-0.61451 -2.324692,-1.145099 -3.575786,-1.518766 l -1.852293,3.315497 c -1.640355,-0.476521 -3.401964,-0.712574 -5.136062,-0.725631 l -0.760945,-3.747981 c -0.676975,0.0078 -1.345594,0.08971 -2.013459,0.171709 -0.667863,0.082 -1.335782,0.164162 -1.920328,0.311261 z m 7.868216,11.029936 4.717685,3.038734 -5.778757,8.977118 3.731175,2.402594 -6.440553,3.314177 -6.438063,3.313077 0.348512,-7.233188 0.35111,-7.234284 3.728802,2.401262 z"
       style="fill:#30b808;stroke-width:0.74764377"
       sodipodi:nodetypes="ccccccccccccscccccccccccccccccccccccccsccccccccccccscccccccccccc" />
  </g>
</svg>
