<?xml version="1.0" encoding="UTF-8" standalone="no"?>
<svg
   xmlns:dc="http://purl.org/dc/elements/1.1/"
   xmlns:cc="http://creativecommons.org/ns#"
   xmlns:rdf="http://www.w3.org/1999/02/22-rdf-syntax-ns#"
   xmlns:svg="http://www.w3.org/2000/svg"
   xmlns="http://www.w3.org/2000/svg"
   xmlns:sodipodi="http://sodipodi.sourceforge.net/DTD/sodipodi-0.dtd"
   xmlns:inkscape="http://www.inkscape.org/namespaces/inkscape"
   width="440.09848"
   height="91.486649"
   viewBox="0 0 366.74873 76.238873"
   preserveAspectRatio="xMidYMid"
   class="uil-gears"
   version="1.1"
   id="svg12"
   sodipodi:docname="aiidalab_wordmark_v4.svg"
   inkscape:version="0.92.2 2405546, 2018-03-11"
   inkscape:export-filename="aiidalab_wordmark_v4.png"
   inkscape:export-xdpi="799.94525"
   inkscape:export-ydpi="799.94525">
  <metadata
     id="metadata18">
    <rdf:RDF>
      <cc:Work
         rdf:about="">
        <dc:format>image/svg+xml</dc:format>
        <dc:type
           rdf:resource="http://purl.org/dc/dcmitype/StillImage" />
        <dc:title></dc:title>
      </cc:Work>
    </rdf:RDF>
  </metadata>
  <defs
     id="defs16" />
  <sodipodi:namedview
     pagecolor="#ffffff"
     bordercolor="#666666"
     borderopacity="1"
     objecttolerance="10"
     gridtolerance="10"
     guidetolerance="10"
     inkscape:pageopacity="0"
     inkscape:pageshadow="2"
     inkscape:window-width="1245"
     inkscape:window-height="856"
     id="namedview14"
     showgrid="false"
     inkscape:zoom="0.49166667"
     inkscape:cx="471.35433"
     inkscape:cy="-102.38879"
     inkscape:window-x="90"
     inkscape:window-y="7"
     inkscape:window-maximized="0"
     inkscape:current-layer="svg12"
     fit-margin-top="0"
     fit-margin-left="0"
     fit-margin-right="0"
     fit-margin-bottom="0"
     inkscape:snap-global="false" />
  <text
     xml:space="preserve"
     style="font-style:normal;font-weight:normal;font-size:90.93605804px;line-height:1.25em;font-family:sans-serif;letter-spacing:0px;word-spacing:0px;fill:#ff0000;fill-opacity:1;stroke:none;stroke-width:4.26262712px;stroke-linecap:butt;stroke-linejoin:miter;stroke-opacity:1"
     x="239.22513"
     y="74.995605"
     id="text2119"><tspan
       sodipodi:role="line"
       id="tspan2117"
       x="239.22513"
       y="74.995605"
       style="font-style:normal;font-variant:normal;font-weight:500;font-stretch:normal;font-family:Futura;-inkscape-font-specification:'Futura Medium';fill:#b3b3b3;stroke:none;stroke-width:4.26262712px">lab</tspan></text>
  <flowRoot
     transform="matrix(0.88888891,0,0,0.88888891,238.87469,-545.07833)"
     style="font-style:normal;font-variant:normal;font-weight:normal;font-stretch:normal;line-height:0.01%;font-family:Arial;-inkscape-font-specification:Arial;letter-spacing:0px;word-spacing:0px;fill:#000000;fill-opacity:1;stroke:none;stroke-width:1px;stroke-linecap:butt;stroke-linejoin:miter;stroke-opacity:1"
     id="flowRoot4296"
     xml:space="preserve"><flowRegion
       id="flowRegion4298"><rect
         y="-2071.4741"
         x="-1718.75"
         height="3900"
         width="5706.25"
         id="rect4300" /></flowRegion><flowPara
       style="font-size:20px;line-height:1.25"
       id="flowPara4302"> </flowPara></flowRoot>  <flowRoot
     transform="matrix(0.88888891,0,0,0.88888891,721.02035,561.35873)"
     style="font-style:normal;font-variant:normal;font-weight:normal;font-stretch:normal;line-height:0.01%;font-family:Arial;-inkscape-font-specification:Arial;letter-spacing:0px;word-spacing:0px;fill:#000000;fill-opacity:1;stroke:none;stroke-width:1px;stroke-linecap:butt;stroke-linejoin:miter;stroke-opacity:1"
     id="flowRoot4296-1"
     xml:space="preserve"><flowRegion
       id="flowRegion4298-7"><rect
         y="-2071.4741"
         x="-1718.75"
         height="3900"
         width="5706.25"
         id="rect4300-2" /></flowRegion><flowPara
       style="font-size:20px;line-height:1.25"
       id="flowPara4302-3"> </flowPara></flowRoot>  <g
     id="g1320"
     transform="matrix(2.3425878,0,0,2.3425878,-134.72095,-24.499957)">
    <g
       id="g1330"
       transform="translate(-1.8975454,-46.168538)">
      <path
         inkscape:connector-curvature="0"
         d="m 79.002,77.733 h -10.63 l 5.315,-12.099 z m 1.547,3.411 3.412,7.497 h 4.006 L 73.687,57.463 59.407,88.641 h 4.006 l 3.412,-7.497 z"
         id="path9-7" />
      <rect
         x="90.862999"
         y="70.077003"
         width="3.5710001"
         height="18.563999"
         id="rect11-9" />
      <rect
         x="100.938"
         y="70.077003"
         width="3.5699999"
         height="18.563999"
         id="rect13-3" />
      <rect
         x="100.938"
         y="70.077003"
         width="3.5699999"
         height="18.563999"
         id="rect15-8" />
      <path
         d="m 114.584,70.077 h -3.57 v 15.152 3.412 h 3.57 2.499 c 1.96114,0.02078 3.59163,-0.20017 5.382,-0.514 4.896,-1.142 8.915,-4.008 10.65,-8.853 1.747,-4.854 0.97,-11.409 -2.399,-15.254 -3.467,-3.978 -8.521,-5.221 -13.633,-5.221 h -6.069 v 3.412 c 1.68,0 3.359,0 5.038,0 3.988,-0.017 8.487,0.775 11.397,3.729 2.938,2.982 3.51,8.453 2.057,12.281 -1.521,4.008 -5.006,5.92 -9.051,6.645 -1.408,0.245 -2.869,0.37 -4.403,0.363 h -1.309 -0.159 z"
         id="path17-0"
         inkscape:connector-curvature="0"
         sodipodi:nodetypes="cccccccccscccccccccc" />
      <path
         inkscape:connector-curvature="0"
         d="m 152.692,77.733 h -10.631 l 5.315,-12.099 z m 1.547,3.411 3.411,7.497 h 4.007 l -14.28,-31.178 -14.28,31.178 h 4.007 l 3.411,-7.497 z"
         id="path19-2" />
      <path
         style="clip-rule:evenodd;fill-rule:evenodd"
         inkscape:connector-curvature="0"
         d="m 92.648,59.027 c 1.293,0 2.342,1.049 2.342,2.342 0,1.293 -1.049,2.342 -2.342,2.342 -1.293,0 -2.342,-1.048 -2.342,-2.342 0,-1.294 1.048,-2.342 2.342,-2.342"
         id="path21-4" />
      <path
         style="clip-rule:evenodd;fill-rule:evenodd"
         inkscape:connector-curvature="0"
         d="m 102.724,59.027 c 1.293,0 2.342,1.049 2.342,2.342 0,1.293 -1.049,2.342 -2.342,2.342 -1.294,0 -2.342,-1.048 -2.342,-2.342 0,-1.294 1.048,-2.342 2.342,-2.342"
         id="path23-8" />
    </g>
  </g>
</svg>
